<svg width="549" height="549" viewBox="0 0 549 549" fill="none" xmlns="http://www.w3.org/2000/svg">
<path d="M37.5793 264.977H68.1513" stroke="black" stroke-width="4" stroke-miterlimit="10"/>
<path d="M68.1508 278.957H39.1602V292.938" stroke="black" stroke-width="4" stroke-miterlimit="10"/>
<path d="M125.242 265.176H146.629C150.517 265.176 153.669 268.328 153.669 272.216C153.669 276.105 150.517 279.257 146.629 279.257H125.242H136.994C138.571 279.257 140.083 279.878 141.205 280.989L153.669 293.337" stroke="black" stroke-width="4" stroke-miterlimit="10"/>
<path d="M437.613 265.176H459C462.888 265.176 466.04 268.328 466.04 272.216C466.04 276.105 462.888 279.257 459 279.257H437.613H449.365C450.943 279.257 452.456 279.878 453.576 280.989L466.04 293.337" stroke="black" stroke-width="4" stroke-miterlimit="10"/>
<path d="M267.333 264.786H288.721C292.609 264.786 295.761 267.938 295.761 271.826C295.761 275.714 292.609 278.868 288.721 278.868H267.333H279.085C280.662 278.868 282.176 279.489 283.296 280.598L295.761 292.948" stroke="black" stroke-width="4" stroke-miterlimit="10"/>
<path d="M110.562 278.957C110.562 286.569 104.392 292.739 96.7811 292.739C89.1704 292.739 82.9998 286.569 82.9998 278.957C82.9998 271.347 89.1704 265.176 96.7811 265.176C104.392 265.176 110.562 271.347 110.562 278.957Z" stroke="black" stroke-width="4" stroke-miterlimit="10"/>
<path d="M524.218 307.515H25.5518V251H524.218V307.515Z" stroke="black" stroke-width="4" stroke-linejoin="round"/>
<path d="M180.988 264.786H203.167C207.055 264.786 210.207 267.938 210.207 271.826C210.207 275.714 207.055 278.868 203.167 278.868H181.779V292.785" stroke="black" stroke-width="4" stroke-miterlimit="10"/>
<path d="M224.397 292.267L231.34 278.527L238.282 264.787L245.226 278.527L252.169 292.267" stroke="black" stroke-width="4" stroke-linejoin="round"/>
<path d="M395.224 264.786H423.036" stroke="black" stroke-width="4" stroke-miterlimit="10"/>
<path d="M395.224 278.867H423.036" stroke="black" stroke-width="4" stroke-miterlimit="10"/>
<path d="M395.224 292.158H423.036" stroke="black" stroke-width="4" stroke-miterlimit="10"/>
<path d="M353.282 293.439V265.578L380.544 292.158V264.787" stroke="black" stroke-width="4" stroke-linejoin="round"/>
<path d="M310.165 264.786H337.726" stroke="black" stroke-width="4" stroke-miterlimit="10"/>
<path d="M323.945 292.648V265.086" stroke="black" stroke-width="4" stroke-miterlimit="10"/>
<path d="M481.031 286.297C481.031 290.186 484.183 293.337 488.071 293.337H502.419C506.307 293.337 509.459 290.186 509.459 286.297C509.459 282.409 506.307 279.257 502.419 279.257H488.071C484.183 279.257 481.031 276.105 481.031 272.216C481.031 268.328 484.183 265.176 488.071 265.176H502.419C506.307 265.176 509.459 268.328 509.459 272.216" stroke="black" stroke-width="4" stroke-miterlimit="10"/>
<path d="M547.667 274.333C547.667 425.292 425.292 547.667 274.333 547.667C123.375 547.667 1 425.292 1 274.333C1 123.375 123.375 1.00007 274.333 1.00007C425.292 1.00007 547.667 123.375 547.667 274.333Z" stroke="black" stroke-width="1.33333" stroke-miterlimit="10"/>
</svg>
