<svg width="96" height="96" viewBox="0 0 96 96" fill="none" xmlns="http://www.w3.org/2000/svg">
<path d="M1.31067 94.156H93.6866V1.31331H1.31067V94.156ZM95.0013 95.468H0V-2.84517e-06H95.0013V95.468Z" fill="black"/>
<path d="M59.52 81.2982C56.7893 81.2982 54.364 79.1862 52.8667 75.5022C51.6 72.3862 49.5667 70.5262 47.4293 70.5262C45.292 70.5262 43.2587 72.3862 41.992 75.5022C40.4947 79.1862 38.0693 81.2982 35.3373 81.2982C32.6067 81.2982 30.1813 79.1862 28.684 75.5022C27.4173 72.3862 25.292 70.5262 23 70.5262C20.7067 70.5262 18.5813 72.3862 17.316 75.5022L15.232 81.1649L14 80.7116L16.0907 75.0289C17.5747 71.3809 20.1547 69.2142 23 69.2142C25.8453 69.2142 28.4253 71.3809 29.9013 75.0089C31.1667 78.1249 33.2 79.9862 35.3373 79.9862C37.476 79.9862 39.508 78.1249 40.7747 75.0089C42.272 71.3262 44.6973 69.2142 47.4293 69.2142C50.16 69.2142 52.5853 71.3262 54.0827 75.0089C55.3493 78.1249 57.3813 79.9862 59.52 79.9862C61.6587 79.9862 63.6907 78.1249 64.9573 75.0089C66.432 71.3809 69.012 69.2142 71.8573 69.2142C74.704 69.2142 77.284 71.3809 78.7587 75.0089L80.8587 80.7116L79.6267 81.1649L77.5347 75.4836C76.276 72.3862 74.1507 70.5262 71.8573 70.5262C69.5653 70.5262 67.44 72.3862 66.1733 75.5022C64.6773 79.1862 62.252 81.2982 59.52 81.2982Z" fill="black"/>
<path d="M51.2031 16.3125C41.5458 16.3125 32.2764 20.6725 26.1018 28.3685C26.0231 28.4658 26.0431 28.5658 26.0631 28.6178C26.0818 28.6698 26.1338 28.7592 26.2591 28.7818L81.3791 38.5045C81.5044 38.5245 81.5831 38.4578 81.6191 38.4165C81.6551 38.3765 81.7084 38.2885 81.6684 38.1712C77.8911 27.0298 68.3578 18.8418 56.7884 16.8018C54.9258 16.4738 53.0578 16.3125 51.2031 16.3125ZM81.4298 39.8218C81.3378 39.8218 81.2444 39.8138 81.1511 39.7965L26.0311 30.0752C25.4791 29.9778 25.0311 29.6058 24.8338 29.0805C24.6364 28.5565 24.7271 27.9832 25.0778 27.5472C32.7378 17.9992 44.9751 13.3872 57.0178 15.5085C69.0578 17.6325 78.9804 26.1538 82.9111 37.7485C83.0911 38.2778 82.9804 38.8472 82.6151 39.2725C82.3124 39.6258 81.8818 39.8218 81.4298 39.8218Z" fill="black"/>
<path d="M48.0754 69.9844L46.7821 69.7564L53.0581 34.1764L54.3514 34.403L48.0754 69.9844Z" fill="black"/>
</svg>
