<svg width="322" height="43" viewBox="0 0 322 43" fill="none" xmlns="http://www.w3.org/2000/svg">
<path d="M306.665 32.4518H296.606C293.299 32.4518 290.609 29.7612 290.609 26.4545L292.731 26.4532C292.731 28.5905 294.47 30.3292 296.606 30.3292H306.665C308.802 30.3292 310.539 28.5905 310.539 26.4545C310.539 24.3172 308.802 22.5798 306.665 22.5798H296.606C293.299 22.5798 290.609 19.8878 290.609 16.5812C290.609 13.2732 293.299 10.5838 296.606 10.5838H306.665C309.971 10.5838 312.663 13.2732 312.663 16.5812H310.539C310.539 14.4438 308.802 12.7065 306.665 12.7065H296.606C294.47 12.7065 292.731 14.4438 292.731 16.5812C292.731 18.7172 294.47 20.4558 296.606 20.4558H306.665C309.971 20.4558 312.663 23.1465 312.663 26.4532C312.663 29.7598 309.971 32.4518 306.665 32.4518Z" fill="black"/>
<path d="M281.528 12.9826H262.028V10.86H281.528V12.9826Z" fill="black"/>
<path d="M281.528 22.856H262.028V20.7334H281.528V22.856Z" fill="black"/>
<path d="M281.528 32.1746H262.028V30.052H281.528V32.1746Z" fill="black"/>
<path d="M213.254 31.5292H211.132V11.9252H213.254V31.5292Z" fill="black"/>
<path d="M252.185 31.5292H250.062V11.9252H252.185V31.5292Z" fill="black"/>
<path d="M31.5959 12.7773H10.7146V10.6533H31.5959V12.7773Z" fill="black"/>
<path d="M12.3299 31.3202H10.2073V20.4562H31.5953V22.5789H12.3299V31.3202Z" fill="black"/>
<path d="M132.416 12.7773H110.98V10.6533H132.416V12.7773Z" fill="black"/>
<path d="M113.15 31.3202H111.028V20.4562H132.416V22.5789H113.15V31.3202Z" fill="black"/>
<path d="M241.531 32.4518H220.724V11.6452H222.847V30.3292H241.531V32.4518Z" fill="black"/>
<path d="M90.8085 32.3541L82.0685 23.6968C81.4778 23.1101 80.6952 22.7888 79.8645 22.7888H71.6245V20.6648H86.6192C88.7552 20.6648 90.4938 18.9288 90.4938 16.7915C90.4938 14.6555 88.7552 12.9168 86.6192 12.9168H71.6245V10.7928H86.6192C89.9258 10.7928 92.6165 13.4848 92.6165 16.7915C92.6165 20.0995 89.9258 22.7888 86.6192 22.7888H84.1698L92.3032 30.8461L90.8085 32.3541Z" fill="black"/>
<path d="M51.6698 12.9166C46.9271 12.9166 43.0685 16.7753 43.0685 21.5166C43.0685 26.2606 46.9271 30.1179 51.6698 30.1179C56.4125 30.1179 60.2698 26.2606 60.2698 21.5166C60.2698 16.7753 56.4125 12.9166 51.6698 12.9166ZM51.6698 32.2419C45.7565 32.2419 40.9458 27.4313 40.9458 21.5166C40.9458 15.6046 45.7565 10.7926 51.6698 10.7926C57.5831 10.7926 62.3925 15.6046 62.3925 21.5166C62.3925 27.4313 57.5831 32.2419 51.6698 32.2419Z" fill="black"/>
<path d="M200.786 31.7759L194.328 14.9466L187.922 30.6879C187.759 31.0866 187.37 31.3493 186.939 31.3493C186.508 31.3493 186.119 31.0866 185.956 30.6879L179.55 14.9466L173.092 31.7759L171.111 31.0159L178.53 11.6799C178.686 11.2719 179.074 11.0026 179.51 10.9986H179.52C179.951 10.9986 180.34 11.2586 180.503 11.6586L186.939 27.4706L193.375 11.6586C193.538 11.2586 193.926 10.9986 194.358 10.9986H194.368C194.804 11.0026 195.194 11.2719 195.348 11.6799L202.767 31.0159L200.786 31.7759Z" fill="black"/>
<path d="M2.78917 40.4787H319.209V2.97599H2.78917V40.4787ZM320.272 42.6013H1.72784C1.14117 42.6013 0.666504 42.1267 0.666504 41.54V1.91602C0.666504 1.32935 1.14117 0.854652 1.72784 0.854652H320.272C320.859 0.854652 321.333 1.32935 321.333 1.91602V41.54C321.333 42.1267 320.859 42.6013 320.272 42.6013Z" fill="black"/>
<path d="M160.538 31.6588L151.748 14.2654L142.96 31.6588L141.066 30.7014L150.802 11.4334C150.982 11.0761 151.348 10.8521 151.748 10.8521C152.148 10.8521 152.515 11.0761 152.696 11.4334L162.432 30.7014L160.538 31.6588Z" fill="black"/>
</svg>
