<svg width="96" height="96" viewBox="0 0 96 96" fill="none" xmlns="http://www.w3.org/2000/svg">
<path d="M1.31067 94.156H93.6866V1.31331H1.31067V94.156ZM95.0013 95.468H0V-2.84517e-06H95.0013V95.468Z" fill="black"/>
<path d="M16.3945 16.8476C16.0318 16.8476 15.7372 17.1423 15.7372 17.505V49.0036C15.7372 66.9876 45.4438 81.161 47.8945 81.161C50.3438 81.161 80.0505 66.9876 80.0505 49.0036V17.505C80.0505 17.1423 79.7558 16.8476 79.3932 16.8476H16.3945ZM47.8945 82.4743C46.1585 82.4743 37.8332 78.6796 29.9838 72.7303C22.8852 67.3503 14.4238 58.8676 14.4238 49.0036V17.505C14.4238 16.4183 15.3078 15.5356 16.3945 15.5356H79.3932C80.4798 15.5356 81.3638 16.4183 81.3638 17.505V49.0036C81.3638 58.8676 72.9025 67.3503 65.8038 72.7303C57.9545 78.6796 49.6292 82.4743 47.8945 82.4743Z" fill="black"/>
<path d="M47.7579 28.7643C45.4352 28.7643 43.5445 30.6536 43.5445 32.9763C43.5445 34.8123 44.7192 36.4243 46.4659 36.9869L46.9219 37.1323V51.0549C46.9219 51.5149 47.2965 51.8909 47.7579 51.8909C48.2192 51.8909 48.5939 51.5149 48.5939 51.0549V37.1323L49.0499 36.9869C50.7965 36.4243 51.9712 34.8123 51.9712 32.9763C51.9712 30.6536 50.0805 28.7643 47.7579 28.7643ZM47.7579 53.2029C46.5725 53.2029 45.6085 52.2389 45.6085 51.0549V38.0683C43.5699 37.2109 42.2312 35.2216 42.2312 32.9763C42.2312 29.9296 44.7112 27.4509 47.7579 27.4509C50.8045 27.4509 53.2845 29.9296 53.2845 32.9763C53.2845 35.2216 51.9459 37.2109 49.9072 38.0683V51.0549C49.9072 52.2389 48.9432 53.2029 47.7579 53.2029Z" fill="black"/>
</svg>
