<svg width="161" height="41" viewBox="0 0 161 41" fill="none" xmlns="http://www.w3.org/2000/svg">
<path d="M118.835 11.5734H99.4973V9.92403H118.835V11.5734Z" fill="white"/>
<path d="M118.835 21.364H99.4973V19.7147H118.835V21.364Z" fill="white"/>
<path d="M118.835 30.604H99.4973V28.9547H118.835V30.604Z" fill="white"/>
<path d="M89.8117 30.8793H69.4064V10.4726H71.0557V29.2299H89.8117V30.8793Z" fill="white"/>
<path d="M1.64933 39.2946H158.428V1.64929H1.64933V39.2946ZM160.076 40.944H0V-4.19103e-05H160.076V40.944Z" fill="white"/>
<path d="M20.7883 30.6709C20.4776 30.6709 20.1923 30.4949 20.0523 30.2176L10.3976 11.1096L11.8696 10.3656L20.7883 28.0176L29.7069 10.3656L31.1789 11.1096L21.5243 30.2176C21.3829 30.4949 21.0989 30.6709 20.7883 30.6709Z" fill="white"/>
<path d="M59.0175 30.2177L50.0988 12.567L41.1801 30.2177L39.7081 29.4737L49.3628 10.3657C49.5028 10.0883 49.7881 9.91232 50.0988 9.91232C50.4095 9.91232 50.6948 10.0883 50.8348 10.3657L60.4895 29.4737L59.0175 30.2177Z" fill="white"/>
<path d="M130.739 30.1215H129.089V11.2988C129.089 10.9695 129.285 10.6708 129.588 10.5401C129.889 10.4121 130.241 10.4735 130.481 10.7001L148.044 27.3161V10.7481H149.695V29.2295C149.695 29.5588 149.497 29.8575 149.196 29.9868C148.893 30.1175 148.543 30.0548 148.303 29.8281L130.739 13.2121V30.1215Z" fill="white"/>
</svg>
