<svg width="914" height="519" viewBox="0 0 914 519" fill="none" xmlns="http://www.w3.org/2000/svg">
<path d="M456.996 0.638C426.012 0.638 395.04 2.40735 364.956 5.89801C335.628 9.30069 306.78 14.3793 279.216 20.994C252.156 27.486 226.056 35.5167 201.636 44.8754C177.456 54.1367 154.704 64.7807 134.04 76.4993C113.376 88.226 94.6082 101.123 78.2642 114.843C61.7762 128.686 47.6042 143.49 36.1562 158.842C24.5042 174.475 15.5522 190.83 9.54016 207.462C3.38416 224.531 0.26416 242.09 0.26416 259.669C0.26416 277.242 3.38416 294.807 9.54016 311.869C15.5522 328.501 24.5042 344.863 36.1562 360.497C47.6042 375.842 61.7762 390.645 78.2642 404.495C94.6082 418.209 113.376 431.111 134.04 442.831C154.704 454.551 177.456 465.194 201.636 474.463C226.056 483.815 252.156 491.853 279.216 498.345C306.78 504.953 335.628 510.038 364.956 513.441C395.04 516.931 426.012 518.701 456.996 518.701C487.992 518.701 518.964 516.931 549.048 513.441C578.376 510.038 607.212 504.953 634.776 498.345C661.848 491.853 687.948 483.815 712.368 474.463C736.548 465.194 759.288 454.551 779.964 442.831C800.628 431.111 819.396 418.209 835.728 404.495C852.228 390.645 866.4 375.842 877.836 360.497C889.5 344.863 898.452 328.501 904.452 311.869C910.608 294.807 913.728 277.242 913.728 259.669C913.728 242.09 910.608 224.531 904.452 207.462C898.452 190.83 889.5 174.475 877.836 158.842C866.4 143.49 852.228 128.686 835.728 114.843C819.396 101.123 800.628 88.226 779.964 76.4993C759.288 64.7807 736.548 54.1367 712.368 44.8754C687.948 35.5167 661.848 27.486 634.776 20.994C607.212 14.3793 578.376 9.30069 549.048 5.89801C518.964 2.40735 487.992 0.638 456.996 0.638ZM456.996 518.626C205.224 518.626 0.396159 402.459 0.396159 259.669C0.396159 116.879 205.224 0.712646 456.996 0.712646C708.768 0.712646 913.596 116.879 913.596 259.669C913.596 402.459 708.768 518.626 456.996 518.626Z" fill="#A0A0A0"/>
</svg>
