<svg width="248" height="248" viewBox="0 0 248 248" fill="none" xmlns="http://www.w3.org/2000/svg">
<path d="M220.844 131.007H214.386C212.141 131.007 210.314 129.18 210.314 126.935H212.12C212.12 128.185 213.137 129.201 214.386 129.201H220.844C222.093 129.201 223.11 128.185 223.11 126.935C223.11 125.685 222.093 124.668 220.844 124.668H214.386C212.141 124.668 210.314 122.841 210.314 120.596C210.314 118.351 212.141 116.524 214.386 116.524H220.844C223.09 116.524 224.917 118.351 224.917 120.596H223.11C223.11 119.347 222.093 118.329 220.844 118.329H214.386C213.137 118.329 212.12 119.347 212.12 120.596C212.12 121.847 213.137 122.864 214.386 122.864H220.844C223.09 122.864 224.917 124.689 224.917 126.935C224.917 129.18 223.09 131.007 220.844 131.007Z" fill="black"/>
<path d="M204.706 118.508H192.186V116.703H204.706V118.508Z" fill="black"/>
<path d="M204.706 124.847H192.186V123.041H204.706V124.847Z" fill="black"/>
<path d="M204.706 130.828H192.186V129.023H204.706V130.828Z" fill="black"/>
<path d="M161.093 130.195H159.288V117.608H161.093V130.195Z" fill="black"/>
<path d="M186.087 130.195H184.281V117.608H186.087V130.195Z" fill="black"/>
<path d="M44.2402 118.375H30.8335V116.569H44.2402V118.375Z" fill="black"/>
<path d="M32.092 130.059H30.2866V122.864H44.24V124.668H32.092V130.059Z" fill="black"/>
<path d="M108.971 118.375H95.208V116.569H108.971V118.375Z" fill="black"/>
<path d="M96.8224 130.059H95.0171V122.864H108.97V124.668H96.8224V130.059Z" fill="black"/>
<path d="M179.026 131.007H165.446V117.427H167.252V129.201H179.026V131.007Z" fill="black"/>
<path d="M82.1018 130.88L76.4911 125.322C76.1524 124.987 75.7058 124.802 75.2311 124.802H69.9404V122.998H79.5684C80.8178 122.998 81.8338 121.98 81.8338 120.732C81.8338 119.482 80.8178 118.464 79.5684 118.464H69.9404V116.659H79.5684C81.8124 116.659 83.6391 118.486 83.6391 120.732C83.6391 122.976 81.8124 124.802 79.5684 124.802H78.5324L83.3724 129.598L82.1018 130.88Z" fill="black"/>
<path d="M57.1282 118.465C54.2055 118.465 51.8268 120.842 51.8268 123.766C51.8268 126.689 54.2055 129.066 57.1282 129.066C60.0508 129.066 62.4295 126.689 62.4295 123.766C62.4295 120.842 60.0508 118.465 57.1282 118.465ZM57.1282 130.871C53.2095 130.871 50.0215 127.683 50.0215 123.766C50.0215 119.846 53.2095 116.659 57.1282 116.659C61.0468 116.659 64.2348 119.846 64.2348 123.766C64.2348 127.683 61.0468 130.871 57.1282 130.871Z" fill="black"/>
<path d="M152.66 130.431L148.715 120.148L144.812 129.736C144.674 130.076 144.343 130.298 143.976 130.298C143.608 130.298 143.279 130.076 143.14 129.736L139.238 120.148L135.292 130.431L133.607 129.784L138.371 117.37C138.503 117.023 138.834 116.794 139.204 116.791C139.571 116.816 139.91 117.01 140.05 117.352L143.976 127.002L147.903 117.352C148.042 117.012 148.374 116.791 148.74 116.791H148.748C149.119 116.794 149.45 117.023 149.582 117.37L154.346 129.784L152.66 130.431Z" fill="black"/>
<path d="M126.828 130.376L121.383 119.6L115.938 130.376L114.327 129.562L120.578 117.191C120.731 116.887 121.043 116.695 121.383 116.695C121.723 116.695 122.035 116.887 122.19 117.191L128.439 129.562L126.828 130.376Z" fill="black"/>
<path d="M123.667 0.601501C55.808 0.601501 0.601329 55.8082 0.601329 123.667C0.601329 191.524 55.808 246.732 123.667 246.732C191.525 246.732 246.732 191.524 246.732 123.667C246.732 55.8082 191.525 0.601501 123.667 0.601501ZM123.667 247.333C55.476 247.333 0 191.856 0 123.667C0 55.4762 55.476 0.000152588 123.667 0.000152588C191.857 0.000152588 247.333 55.4762 247.333 123.667C247.333 191.856 191.857 247.333 123.667 247.333Z" fill="black"/>
</svg>
