<svg width="548" height="548" viewBox="0 0 548 548" fill="none" xmlns="http://www.w3.org/2000/svg">
<path d="M467.979 281.241C467.979 285.118 471.123 288.264 475.001 288.264H489.311C493.189 288.264 496.333 285.118 496.333 281.241C496.333 277.362 493.189 274.218 489.311 274.218H475.001C471.123 274.218 467.979 271.074 467.979 267.197C467.979 263.32 471.123 260.174 475.001 260.174H489.311C493.189 260.174 496.333 263.32 496.333 267.197" stroke="black" stroke-width="4" stroke-miterlimit="10"/>
<path d="M425.814 260.569H453.553" stroke="black" stroke-width="4" stroke-miterlimit="10"/>
<path d="M425.814 274.613H453.553" stroke="black" stroke-width="4" stroke-miterlimit="10"/>
<path d="M425.814 287.869H453.553" stroke="black" stroke-width="4" stroke-miterlimit="10"/>
<path d="M354.923 260.573V288.462" stroke="black" stroke-width="4" stroke-miterlimit="10"/>
<path d="M410.302 260.573V288.462" stroke="black" stroke-width="4" stroke-miterlimit="10"/>
<path d="M68.3157 260.275H98.0197" stroke="black" stroke-width="4" stroke-miterlimit="10"/>
<path d="M98.0195 274.219H69.1035V288.163" stroke="black" stroke-width="4" stroke-miterlimit="10"/>
<path d="M210.946 260.275H241.438" stroke="black" stroke-width="4" stroke-miterlimit="10"/>
<path d="M241.438 274.219H212.522V288.163" stroke="black" stroke-width="4" stroke-miterlimit="10"/>
<path d="M368.568 260.175V288.263H396.656" stroke="black" stroke-width="4" stroke-miterlimit="10"/>
<path d="M154.961 260.474H176.293C180.17 260.474 183.314 263.617 183.314 267.497C183.314 271.374 180.17 274.517 176.293 274.517H154.961H166.684C168.256 274.517 169.765 275.138 170.881 276.245L183.314 288.561" stroke="black" stroke-width="4" stroke-miterlimit="10"/>
<path d="M140.32 274.219C140.32 281.81 134.166 287.964 126.575 287.964C118.984 287.964 112.83 281.81 112.83 274.219C112.83 266.628 118.984 260.474 126.575 260.474C134.166 260.474 140.32 266.628 140.32 274.219Z" stroke="black" stroke-width="4" stroke-miterlimit="10"/>
<path d="M297.891 288.271L303.169 274.518L308.445 260.764L318.998 286.694L329.551 260.764L334.829 274.518L340.105 288.271" stroke="black" stroke-width="4" stroke-linejoin="round"/>
<path d="M508.667 302.7H55.532V246.335H508.667V302.7Z" stroke="black" stroke-width="4" stroke-linejoin="round"/>
<path d="M255.091 287.964L262.015 274.26L268.94 260.554L275.865 274.26L282.789 287.964" stroke="black" stroke-width="4" stroke-linejoin="round"/>
<path d="M547.333 274C547.333 424.959 424.957 547.333 274 547.333C123.043 547.333 0.666748 424.959 0.666748 274C0.666748 123.041 123.043 0.666569 274 0.666569C424.957 0.666569 547.333 123.041 547.333 274Z" stroke="black" stroke-width="1.33333" stroke-miterlimit="10"/>
</svg>
