<svg width="96" height="96" viewBox="0 0 96 96" fill="none" xmlns="http://www.w3.org/2000/svg">
<path d="M1.31067 94.156H93.6866V1.31331H1.31067V94.156ZM95.0013 95.468H0V-2.84517e-06H95.0013V95.468Z" fill="black"/>
<path d="M48.4186 16.3133C43.4986 16.3133 39.4959 20.316 39.4959 25.236C39.4959 30.1573 43.4986 34.16 48.4186 34.16C53.3373 34.16 57.3413 30.1573 57.3413 25.236C57.3413 20.316 53.3373 16.3133 48.4186 16.3133ZM48.4186 35.472C42.7746 35.472 38.1813 30.8813 38.1813 25.236C38.1813 19.592 42.7746 15 48.4186 15C54.0613 15 58.6546 19.592 58.6546 25.236C58.6546 30.8813 54.0613 35.472 48.4186 35.472Z" fill="black"/>
<path d="M69.9667 81.3406H26.8707C25.8387 81.3406 25 80.502 25 79.4713V49.4486C25 41.3246 33.9067 34.802 42.7067 32.554L43.0307 33.826C34.7227 35.9486 26.3133 41.9953 26.3133 49.4486V79.4713C26.3133 79.778 26.5627 80.0286 26.8707 80.0286H69.9667C70.272 80.0286 70.5227 79.778 70.5227 79.4713V49.4486C70.5227 41.7953 62.1867 35.758 53.9507 33.7526L54.2627 32.478C62.9947 34.6046 71.8347 41.118 71.8347 49.4486V79.4713C71.8347 80.502 70.996 81.3406 69.9667 81.3406Z" fill="black"/>
<path d="M48.4185 39.575C45.1985 39.575 42.5799 42.1937 42.5799 45.4137C42.5799 48.6323 45.1985 51.2523 48.4185 51.2523C51.6372 51.2523 54.2572 48.6323 54.2572 45.4137C54.2572 42.1937 51.6372 39.575 48.4185 39.575ZM48.4185 52.5643C44.4745 52.5643 41.2665 49.3563 41.2665 45.4137C41.2665 41.4697 44.4745 38.263 48.4185 38.263C52.3612 38.263 55.5692 41.4697 55.5692 45.4137C55.5692 49.3563 52.3612 52.5643 48.4185 52.5643Z" fill="black"/>
<path d="M58.1021 81.3406H38.7341C37.2955 81.3406 36.1235 80.17 36.1235 78.7313V61.0326C36.1235 56.1113 39.4848 51.7486 44.4888 50.1766L44.8821 51.4286C40.4288 52.8286 37.4368 56.6873 37.4368 61.0326V78.7313C37.4368 79.446 38.0181 80.0286 38.7341 80.0286H58.1021C58.8181 80.0286 59.3995 79.446 59.3995 78.7313V61.0326C59.3995 56.622 56.3501 52.7446 51.8088 51.3833L52.1861 50.1273C57.2875 51.654 60.7128 56.0366 60.7128 61.0326V78.7313C60.7128 80.17 59.5408 81.3406 58.1021 81.3406Z" fill="black"/>
</svg>
