<svg width="96" height="96" viewBox="0 0 96 96" fill="none" xmlns="http://www.w3.org/2000/svg">
<path fill-rule="evenodd" clip-rule="evenodd" d="M59.432 79.4946H35.632C35.1173 79.4946 34.6453 79.2346 34.3707 78.8C34.096 78.364 34.0627 77.8266 34.284 77.3613L40.4707 64.336H25.656C19.2627 64.336 14.0613 58.9813 14.0613 52.4C14.0613 45.972 19.0213 40.7146 25.2093 40.4706C25.0693 39.728 24.9987 38.9706 24.9987 38.212C24.9987 31.8186 29.908 26.5813 36.0493 26.288C36.8333 20.3826 41.6733 16 47.532 16C53.3907 16 58.2293 20.3826 59.0133 26.288C65.1547 26.5813 70.064 31.8186 70.064 38.212C70.064 38.9706 69.9933 39.728 69.8533 40.4706C76.0413 40.7146 81.0013 45.972 81.0013 52.4C81.0013 58.9813 75.8 64.336 69.4067 64.336H54.592L60.7787 77.3613C61 77.8266 60.968 78.364 60.692 78.8C60.4173 79.2346 59.9453 79.4946 59.432 79.4946ZM79.688 52.4C79.688 46.5413 75.076 41.776 69.4067 41.776C69.3365 41.776 69.267 41.7782 69.1978 41.7805C69.1749 41.7812 69.1521 41.782 69.1293 41.7826L69.0587 41.7853C68.8507 41.8013 68.6533 41.7013 68.5227 41.54C68.3933 41.3786 68.348 41.1653 68.4 40.9653C68.632 40.068 68.7507 39.14 68.7507 38.212C68.7507 32.3546 64.1387 27.588 58.4747 27.588C58.4653 27.588 58.4333 27.5893 58.424 27.5893C58.0827 27.5893 57.7987 27.3293 57.7693 26.9893C57.2973 21.472 52.896 17.3133 47.532 17.3133C42.1667 17.3133 37.7653 21.472 37.2933 26.9893C37.264 27.3293 36.98 27.5893 36.6387 27.5893L36.5933 27.588C30.924 27.588 26.312 32.3546 26.312 38.212C26.312 39.14 26.4307 40.068 26.6627 40.9653C26.7147 41.1653 26.6693 41.3786 26.54 41.54C26.4093 41.7013 26.2107 41.8 26.004 41.7853L25.9347 41.7826C25.911 41.782 25.8874 41.7812 25.8638 41.7804C25.7946 41.7782 25.7256 41.776 25.656 41.776C19.9867 41.776 15.3747 46.5413 15.3747 52.4C15.3747 58.2573 19.9867 63.024 25.656 63.024H41.5093C41.7347 63.024 41.944 63.1386 42.064 63.3293C42.184 63.52 42.1987 63.7573 42.1027 63.9613L35.4693 77.924C35.4347 77.9986 35.456 78.06 35.48 78.0973C35.504 78.1373 35.5493 78.1813 35.632 78.1813H59.432C59.5133 78.1813 59.5587 78.1373 59.5827 78.0973C59.6067 78.06 59.628 77.9986 59.5933 77.924L52.96 63.9613C52.864 63.7573 52.8787 63.52 52.9987 63.3293C53.1187 63.1386 53.328 63.024 53.5533 63.024H69.4067C75.076 63.024 79.688 58.2573 79.688 52.4Z" fill="black"/>
<path fill-rule="evenodd" clip-rule="evenodd" d="M95.0013 95.468H0V0H95.0013V95.468ZM1.3147 94.156H93.6907V1.31331H1.3147V94.156Z" fill="black"/>
</svg>
